<svg width="325" height="68" viewBox="0 0 325 68" fill="none" xmlns="http://www.w3.org/2000/svg">
<path fill-rule="evenodd" clip-rule="evenodd" d="M136.699 53.6303C134.829 53.6303 133.724 54.7419 133.724 56.6243C133.724 58.5057 134.829 59.6173 136.699 59.6173C138.569 59.6173 139.674 58.5058 139.674 56.6243C139.674 54.7419 138.654 53.6303 136.699 53.6303ZM325 56.2815V58.7623C325 59.0188 324.831 59.1893 324.49 59.1893H319.9C315.819 59.1893 313.099 56.4529 313.099 52.3473V31.6479H306.298C305.958 31.6479 305.872 31.5617 305.872 31.1348V28.6539C305.872 28.3111 305.958 28.1409 306.298 28.1409H316.669C316.737 28.1379 316.804 28.1492 316.868 28.1739C316.931 28.1987 316.988 28.2363 317.036 28.2845C317.084 28.3328 317.122 28.3905 317.146 28.4541C317.171 28.5176 317.182 28.5857 317.18 28.6539V51.9193C317.18 54.4001 318.369 55.7683 320.835 55.7683H324.575C324.831 55.8535 325 55.9397 325 56.2815ZM286.065 53.4589C286.065 51.1495 287.425 49.9517 290.4 49.9517H295.161V54.9985C293.511 55.8825 291.674 56.3522 289.805 56.3677C287.255 56.3677 286.065 55.1699 286.065 53.4589ZM291.591 41.9971C294.056 41.9971 295.246 43.2801 295.246 45.8461V46.9589H290.57C284.96 46.9589 281.985 49.2683 281.985 53.6305C281.985 57.0515 284.449 59.4471 289.04 59.4471C291.422 59.4735 293.748 58.7232 295.671 57.3081L296.012 58.6773C296.181 59.0193 296.266 59.1903 296.606 59.1903H298.732C298.801 59.2002 298.872 59.1938 298.938 59.1715C299.005 59.1492 299.065 59.1117 299.114 59.0619C299.164 59.0122 299.201 58.9515 299.223 58.8848C299.245 58.818 299.252 58.747 299.242 58.6773V45.4191C299.242 41.2273 296.521 38.4899 292.355 38.4899H284.279C284.21 38.4801 284.14 38.4865 284.073 38.5088C284.007 38.5311 283.947 38.5686 283.898 38.6184C283.848 38.6681 283.811 38.7288 283.789 38.7955C283.767 38.8623 283.76 38.9333 283.77 39.0029V41.4837C283.76 41.5534 283.766 41.6245 283.789 41.6912C283.811 41.758 283.848 41.8187 283.897 41.8685C283.947 41.9183 284.007 41.9558 284.073 41.978C284.14 42.0003 284.21 42.0067 284.279 41.9968L291.591 41.9971ZM264.727 41.9971V52.0045C264.727 54.4853 265.916 55.7683 268.382 55.7683H273.057C273.312 55.7683 273.482 55.9397 273.482 56.2813V58.7621C273.486 58.8192 273.477 58.8763 273.457 58.9298C273.437 58.9833 273.406 59.0318 273.366 59.0723C273.325 59.1127 273.277 59.1441 273.224 59.1644C273.171 59.1847 273.114 59.1935 273.057 59.19H267.532C263.366 59.19 260.731 56.5379 260.731 52.347V41.9968H254.61C254.27 41.9968 254.185 41.8263 254.185 41.5697V39.0893C254.185 38.7473 254.355 38.5763 254.61 38.5763H260.731V31.7331C260.731 31.3911 260.901 31.3051 261.156 31.3051H264.216C264.556 31.3051 264.727 31.4765 264.727 31.7331V38.5761H273.057C273.312 38.5761 273.482 38.7475 273.482 39.0891V41.5699C273.482 41.9119 273.312 41.9969 273.057 41.9969L264.727 41.9971ZM230.892 58.7623C230.892 59.0188 231.062 59.1903 231.403 59.1903H248.66C249 59.1903 249.17 59.1051 249.17 58.7623V56.2826C249.17 55.9399 249 55.8547 248.66 55.8547H242.539V39.0893C242.539 38.7473 242.454 38.5763 242.114 38.5763H231.403C231.335 38.5734 231.268 38.5846 231.204 38.6094C231.141 38.6341 231.084 38.6718 231.036 38.72C230.988 38.7682 230.95 38.8259 230.926 38.8895C230.901 38.9531 230.89 39.0211 230.892 39.0893V41.5701C230.892 41.8266 231.062 41.998 231.403 41.998H238.629V55.8545H231.403C231.062 55.8545 230.892 55.9397 230.892 56.2824V58.7623ZM213.295 56.1963C214.899 56.1087 216.466 55.6709 217.886 54.9133V42.9384C216.549 42.1286 215.025 41.6862 213.465 41.6554C210.064 41.6554 208.364 44.2214 208.364 49.0116C208.279 54.2287 210.064 56.1963 213.295 56.1963H213.295ZM212.53 38.3195C214.57 38.3195 216.441 39.0041 218.311 40.5436L218.736 39.1745C218.749 39.0278 218.819 38.8921 218.93 38.7963C219.041 38.7005 219.185 38.6521 219.331 38.6615H221.457C221.711 38.6615 221.882 38.8329 221.882 39.1745V61.1577C221.882 65.3485 219.161 67.9997 214.995 67.9997H206.834C206.765 68.0098 206.694 68.0035 206.628 67.9813C206.561 67.9591 206.501 67.9216 206.452 67.8718C206.402 67.8221 206.365 67.7613 206.342 67.6945C206.32 67.6276 206.314 67.5565 206.324 67.4867V65.0921C206.324 64.7501 206.494 64.6641 206.834 64.6641H214.145C216.611 64.6641 217.8 63.296 217.8 60.8151V57.6507C216.123 58.8097 214.139 59.4354 212.105 59.4469C206.409 59.4469 204.114 55.5117 204.114 48.9262C204.114 42.5103 206.578 38.3195 212.53 38.3195ZM179.46 58.7623C179.46 59.0188 179.63 59.1903 179.969 59.1903H197.227C197.567 59.1903 197.737 59.1051 197.737 58.7623V56.2826C197.737 55.9399 197.566 55.8547 197.227 55.8547H191.106V39.0893C191.106 38.7473 191.022 38.5763 190.681 38.5763H179.969C179.902 38.5735 179.834 38.5848 179.771 38.6096C179.708 38.6344 179.651 38.6721 179.603 38.7203C179.555 38.7685 179.517 38.8262 179.493 38.8897C179.468 38.9532 179.457 39.0212 179.46 39.0893V41.5701C179.46 41.8266 179.63 41.998 179.969 41.998H187.196V55.8545H179.969C179.63 55.8545 179.46 55.9397 179.46 56.2824L179.46 58.7623ZM162.288 56.1963C163.894 56.1192 165.462 55.6808 166.878 54.9133V42.9384C165.542 42.1286 164.018 41.6862 162.458 41.6554C159.057 41.6554 157.357 44.2214 157.357 49.0116C157.272 54.2287 159.058 56.1963 162.288 56.1963H162.288ZM161.523 38.3195C163.427 38.3254 165.277 38.9559 166.794 40.1157V28.8253C166.794 28.4825 166.964 28.3123 167.219 28.3123H170.279C170.534 28.3123 170.704 28.4827 170.704 28.8253V58.7623C170.704 59.1043 170.534 59.1903 170.279 59.1903H168.153C167.814 59.1903 167.728 59.0189 167.559 58.6772L167.134 57.3081C165.383 58.6804 163.231 59.4323 161.013 59.447C155.317 59.447 153.021 55.5119 153.021 48.9264C153.106 42.5103 155.572 38.3195 161.522 38.3195H161.523ZM116.467 48.9263C116.467 53.9721 114.851 56.3677 111.366 56.3677C107.88 56.3677 106.265 53.9721 106.265 48.9263C106.265 43.8795 107.88 41.4839 111.366 41.4839C114.851 41.4839 116.466 43.8795 116.466 48.9262L116.467 48.9263ZM120.632 48.9263C120.632 42.6817 117.997 38.3195 111.366 38.3195C104.735 38.3195 102.099 42.6817 102.099 48.9263C102.099 55.2551 104.735 59.5322 111.366 59.5322C117.997 59.5322 120.631 55.2551 120.631 48.9262L120.632 48.9263ZM96.4879 59.1903H92.0671C91.9231 59.1787 91.7874 59.1183 91.682 59.0189H91.6811C91.6448 58.9936 91.6039 58.9646 91.5564 58.9337L81.1849 48.9262V58.7623C81.1849 59.1043 81.1002 59.1903 80.7598 59.1903H77.6998C77.3594 59.1903 77.1901 59.0189 77.1901 58.7623V28.8253C77.1801 28.7556 77.1864 28.6845 77.2085 28.6176C77.2306 28.5508 77.2679 28.4901 77.3174 28.4403C77.3669 28.3905 77.4272 28.353 77.4936 28.3308C77.56 28.3085 77.6306 28.3022 77.6998 28.3123H80.7598C81.1002 28.3123 81.1849 28.4827 81.1849 28.8253V47.9849L91.3016 38.8325C91.3872 38.6611 91.5564 38.6611 91.7267 38.6611H95.7223C96.1474 38.6611 96.2318 39.0891 95.9771 39.3457L85.6911 48.4981L96.7427 58.6772C96.9976 58.7623 96.8273 59.1903 96.4879 59.1903ZM52.3666 55.2551L51.6867 57.4793C51.6628 57.6319 51.6733 57.788 51.7174 57.936C51.7615 58.084 51.838 58.2202 51.9415 58.3343C53.9821 59.1903 56.1074 59.6183 59.7626 59.6183C66.1385 59.6183 69.0292 57.3079 69.0292 53.4589C69.0292 49.3851 64.8205 48.3091 61.1754 47.3763C58.3916 46.6646 55.9371 46.0362 55.9371 44.2212C55.9371 42.5967 57.0421 41.6553 60.6127 41.6553C62.7922 41.6654 64.9521 42.0711 66.9886 42.853C67.329 43.0235 67.5838 42.9382 67.6685 42.6816L68.3484 40.3723C68.389 40.3072 68.4123 40.2327 68.416 40.1559C68.4198 40.0791 68.4038 40.0027 68.3697 39.9339C68.3356 39.8651 68.2845 39.8064 68.2213 39.7632C68.1581 39.7201 68.085 39.6941 68.0089 39.6877C65.6944 38.719 63.2029 38.2529 60.6973 38.3196C54.6618 38.3196 51.9413 40.629 51.9413 44.478C51.9413 48.5518 56.15 49.6287 59.7941 50.5606C62.5779 51.2732 65.0334 51.9007 65.0334 53.7157C65.0334 55.2553 63.9284 56.1965 59.8472 56.1965C57.5236 56.2575 55.2113 55.8502 53.0463 54.9987C52.7917 54.9133 52.4511 54.9133 52.3666 55.2551ZM35.1086 41.3987C32.0485 41.3987 30.0935 43.2801 29.8377 47.3866H39.7842C39.8698 43.7081 38.509 41.3987 35.1086 41.3987ZM43.9501 48.5835V49.7812C43.9501 50.123 43.7799 50.2943 43.5251 50.2943H29.8377C30.1781 54.1433 32.2187 56.1109 35.7885 56.1109C37.8977 56.1413 39.9876 55.7033 41.9095 54.8278C41.9686 54.7888 42.0361 54.7644 42.1064 54.7565C42.1766 54.7487 42.2478 54.7576 42.314 54.7826C42.3802 54.8075 42.4397 54.8479 42.4875 54.9003C42.5354 54.9528 42.5703 55.0158 42.5894 55.0843L43.2702 57.3075C43.3549 57.564 43.3549 57.8205 42.9298 57.992C40.6511 59.0889 38.1435 59.6172 35.6192 59.5323C29.4982 59.5323 25.5871 55.5981 25.5871 48.9264C25.5871 42.6819 28.6481 38.3196 35.1941 38.3196C41.7392 38.3195 43.9501 42.3399 43.9501 48.5835ZM17.6822 39.8591C15.3308 38.8 12.7769 38.2744 10.2014 38.3195C4.16501 38.3195 0.0846232 42.2537 0 49.0115C0 55.5979 4.08043 59.6183 10.1158 59.6183C12.921 59.6183 15.1318 59.2755 17.5966 58.0778C17.937 57.9073 18.1072 57.6507 17.937 57.3941L17.2571 55.1699C17.2323 55.0952 17.1905 55.0273 17.1351 54.9717C17.0798 54.916 17.0123 54.874 16.938 54.8492C16.8638 54.8243 16.7848 54.8171 16.7073 54.8283C16.6298 54.8394 16.556 54.8686 16.4916 54.9134C14.5512 55.7202 12.4699 56.1274 10.3707 56.1112C6.37587 56.1112 4.16501 53.6304 4.16501 48.9264C4.16501 44.3067 6.37587 41.8268 10.3707 41.8268C12.4742 41.76 14.5659 42.169 16.4916 43.0239C16.556 43.0688 16.6298 43.098 16.7073 43.1092C16.7848 43.1204 16.8638 43.1133 16.9381 43.0884C17.0124 43.0635 17.0799 43.0215 17.1353 42.9658C17.1906 42.9101 17.2323 42.8421 17.2571 42.7674L17.937 40.5443C18.1072 40.2009 18.0216 40.0305 17.6822 39.8591ZM236.928 15.3959C236.928 13.5145 238.033 12.4019 239.903 12.4019C241.858 12.4019 242.878 13.5145 242.878 15.3959C242.878 17.2773 241.774 18.3899 239.903 18.3899C238.033 18.3899 236.928 17.2773 236.928 15.3959ZM188.556 12.4019C186.685 12.4019 185.58 13.5145 185.58 15.3959C185.58 17.2773 186.6 18.3899 188.556 18.3899C190.425 18.3899 191.531 17.2773 191.531 15.3959C191.531 13.5145 190.511 12.4019 188.556 12.4019ZM6.97018 17.9619C7.31059 17.9619 7.39525 17.9619 7.73566 17.6199L16.3215 8.89568L7.73566 0.341912C7.63367 0.217578 7.50935 0.11369 7.36918 0.0356786C7.23928 0.000360773 7.10424 -0.0117505 6.97018 -0.000104933H3.23025C3.14727 -0.0115653 3.06282 0.00340614 2.98872 0.0427106C2.91462 0.082015 2.8546 0.143682 2.81706 0.219065C2.77953 0.294449 2.76636 0.37977 2.77942 0.463066C2.79247 0.546363 2.83108 0.623458 2.88984 0.683545L11.2207 9.06613L3.06002 17.2773C3.01028 17.3403 2.97945 17.4163 2.97116 17.4963C2.96288 17.5763 2.97749 17.6571 3.01326 17.729C3.04904 17.801 3.1045 17.8611 3.1731 17.9024C3.24171 17.9436 3.32059 17.9643 3.40047 17.9619H6.97018Z" fill="white"/>
</svg>
