<svg width="80" height="64" viewBox="0 0 80 64" fill="none" xmlns="http://www.w3.org/2000/svg">
<path d="M10 24C4.48 24 0 28.48 0 34C0 39.52 4.48 44 10 44C15.52 44 20 39.52 20 34C20 28.48 15.52 24 10 24ZM10 40C6.68 40 4 37.32 4 34C4 30.68 6.68 28 10 28C13.32 28 16 30.68 16 34C16 37.32 13.32 40 10 40Z" fill="#0000FF"/>
<path d="M38 44C32.48 44 28 48.48 28 54C28 59.52 32.48 64 38 64C43.52 64 48 59.52 48 54C48 48.48 43.52 44 38 44ZM38 60C34.68 60 32 57.32 32 54C32 50.68 34.68 48 38 48C41.32 48 44 50.68 44 54C44 57.32 41.32 60 38 60Z" fill="#0000FF"/>
<path d="M66 0C58.28 0 52 6.28 52 14C52 21.72 58.28 28 66 28C73.72 28 80 21.72 80 14C80 6.28 73.72 0 66 0ZM66 24C60.48 24 56 19.52 56 14C56 8.48 60.48 4 66 4C71.52 4 76 8.48 76 14C76 19.52 71.52 24 66 24Z" fill="#0000FF"/>
<path d="M48 12H44C39.6 12 36 15.6 36 20V32H24C22.88 32 22 32.88 22 34C22 35.12 22.88 36 24 36H36V40C36 41.12 36.88 42 38 42C39.12 42 40 41.12 40 40V20C40 17.8 41.8 16 44 16H48C49.12 16 50 15.12 50 14C50 12.88 49.12 12 48 12Z" fill="#0000FF"/>
</svg>
