<svg width="508" height="463" viewBox="0 0 508 463" fill="none" xmlns="http://www.w3.org/2000/svg">
<path d="M293.247 356.144C391.593 356.144 471.319 276.419 471.319 178.072C471.319 79.7256 391.593 0 293.247 0C194.9 0 115.175 79.7256 115.175 178.072C115.175 276.419 194.9 356.144 293.247 356.144Z" fill="#C8EDFF"/>
<path d="M178.006 390.488L216.57 404.767C221.411 406.56 223.876 411.93 222.084 416.77C220.291 421.61 214.922 424.076 210.081 422.283L171.517 408.004C166.677 406.212 164.211 400.842 166.004 396.002C167.796 391.169 173.174 388.696 178.006 390.488Z" fill="#2CC674"/>
<path d="M185.662 396.524L202.876 392.916L223.19 403.852L222.645 414.191L185.662 396.524Z" fill="#2CC674"/>
<path d="M203.485 391.479L206.571 386.321L227.445 396.289L221.811 406.446C221.811 406.446 202.517 414.357 202.782 414.455C203.047 414.554 200.112 399.012 200.112 399.012L203.485 391.479Z" fill="#2CC674"/>
<path d="M398.613 397.023L412.892 358.459C414.685 353.618 420.055 351.153 424.895 352.945C429.735 354.738 432.201 360.107 430.408 364.948L416.129 403.512C414.337 408.352 408.967 410.818 404.127 409.025C399.294 407.233 396.821 401.863 398.613 397.023Z" fill="#2CC674"/>
<path d="M404.649 389.369L401.041 372.155L411.977 351.841L422.316 352.385L404.649 389.369Z" fill="#2CC674"/>
<path d="M399.606 371.55L394.448 368.464L404.416 347.59L414.574 353.225C414.574 353.225 422.484 372.518 422.583 372.253C422.681 371.989 407.139 374.923 407.139 374.923L399.606 371.55Z" fill="#2CC674"/>
<path d="M39.2872 392.53C39.2872 399.662 33.7511 405.047 20.4779 405.047C14.3367 405.047 9.02743 403.837 5.5333 402.543C4.92826 402.317 4.85262 401.938 5.00388 401.56L6.06273 398.452C6.21399 397.998 6.59213 397.847 7.04591 397.998C10.7594 399.208 14.8585 400.275 20.3947 400.275C31.0888 400.275 33.5922 397.09 33.5922 392.916C33.5922 380.399 2.87109 386.011 2.87109 368.495C2.87109 362.883 5.07195 358.557 9.92743 355.751C6.66776 353.626 4.39127 350.668 4.39127 346.115C4.39127 338.984 9.92743 333.599 23.2006 333.599C29.3418 333.599 34.6511 334.809 38.1452 336.102C38.7502 336.329 38.8259 336.707 38.6746 337.085L37.6158 340.194C37.4645 340.647 37.0864 340.799 36.6326 340.647C32.9191 339.437 28.8199 338.371 23.2838 338.371C12.5896 338.371 10.0863 341.555 10.0863 345.73C10.0863 358.247 40.8074 352.635 40.8074 370.151C40.8074 375.763 38.6065 380.089 33.751 382.895C37.0107 385.02 39.2872 387.977 39.2872 392.53ZM29.7275 380.845C33.8267 378.19 35.4905 374.628 35.4905 371.361C35.4905 362.641 23.125 361.574 13.951 357.785C9.85181 360.44 8.18794 364.002 8.18794 367.269C8.18794 375.997 20.5535 377.056 29.7275 380.845Z" fill="#939393" stroke="#939393" stroke-width="3.7609" stroke-miterlimit="10"/>
<path d="M33.9395 341.275L38.1672 342.833L40.9958 335.701L38.4924 334.696L37.3958 334.658" fill="#939393"/>
<path d="M4.94199 395.759L8.57229 397.075L5.63026 404.063L2 402.77" fill="#939393"/>
<path d="M103.588 442.787C103.588 452.777 95.8288 460.318 77.2388 460.318C68.6321 460.318 61.1976 458.616 56.3043 456.808C55.4572 456.491 55.3513 455.961 55.5631 455.424L57.053 451.068C57.2648 450.433 57.7942 450.221 58.4371 450.433C63.6405 452.134 69.3808 453.617 77.1329 453.617C92.1153 453.617 95.617 449.155 95.617 443.308C95.617 425.777 52.5908 433.643 52.5908 409.093C52.5908 401.228 55.669 395.177 62.4757 391.244C57.9077 388.272 54.7236 384.128 54.7236 377.752C54.7236 367.761 62.4758 360.221 81.0733 360.221C89.6801 360.221 97.1145 361.922 102.008 363.73C102.855 364.048 102.961 364.577 102.749 365.114L101.259 369.47C101.047 370.106 100.518 370.317 99.875 370.106C94.6717 368.404 88.9313 366.914 81.1792 366.914C66.1968 366.914 62.6951 371.376 62.6951 377.222C62.6951 394.754 105.721 386.888 105.721 411.438C105.721 419.303 102.643 425.354 95.8363 429.286C100.397 432.274 103.588 436.411 103.588 442.787ZM90.2019 426.428C95.9423 422.707 98.2792 417.715 98.2792 413.147C98.2792 400.925 80.9598 399.443 68.1026 394.126C62.3623 397.847 60.0253 402.839 60.0253 407.407C60.0253 419.628 77.3447 421.111 90.2019 426.428Z" fill="#939393" stroke="#939393" stroke-width="5.2679" stroke-miterlimit="10"/>
<path d="M96.0918 370.991L102.021 373.177L105.984 363.193L102.475 361.771L100.94 361.726" fill="#939393"/>
<path d="M55.4852 447.317L60.56 449.155L56.4457 458.949L51.3633 457.126" fill="#939393"/>
<path d="M76.3154 358.821C76.3154 357.044 201.824 216.674 201.824 216.674L208.192 221.817C221.08 226.264 201.476 292.04 201.476 292.04" stroke="#545454" stroke-width="5.4192" stroke-miterlimit="10"/>
<path d="M24.3711 333.44C24.3711 331.662 200.787 215.857 200.787 215.857L211.254 221.96C224.142 226.407 217.032 297.069 217.032 297.069" stroke="#545454" stroke-width="5.4192" stroke-miterlimit="10"/>
<path d="M279.791 195.232L239.964 305.176L205.083 386.933L247.489 406.62L308.341 233.796L279.791 195.232Z" fill="#1162AA"/>
<path d="M288.45 235.929C290.182 239.643 228.914 397.998 228.914 397.998L247.489 406.65L297.246 264.026L288.45 235.929Z" fill="#105884"/>
<path d="M286.975 232.072L302.834 314.283C304.203 321.377 308.197 327.692 314.02 331.973L388.04 386.343L410.207 348.218L339.598 304.315L347.539 240.785L296.459 222.286L286.975 232.072Z" fill="#1162AA"/>
<path d="M458.227 188.963L384.64 250.333L434.413 310.015L508 248.644L458.227 188.963Z" fill="#545454"/>
<path d="M409.619 231.959C407.607 228.593 403.175 222.029 408.265 214.708C412.637 208.423 417.363 204.134 424.79 204.951C432.217 205.768 434.932 210.502 434.932 210.502" stroke="#545454" stroke-width="5.4192" stroke-miterlimit="10"/>
<path d="M295.893 103.697C296.588 103.651 298.608 102.774 298.608 102.774L297.942 100.634L295.333 102.207L295.893 103.697Z" fill="#FFECD4"/>
<path d="M271.842 129.245C279.617 122.347 297.216 114.55 297.216 114.55L327.385 106.458C327.385 106.458 341.044 130.115 349.976 159.83C355.142 177.013 347.042 245.814 347.042 245.814L269.452 223.662L284.495 180.787L271.842 129.245Z" fill="#00E86C"/>
<path d="M212.025 226.142C219.565 226.142 225.677 220.031 225.677 212.491C225.677 204.952 219.565 198.84 212.025 198.84C204.486 198.84 198.374 204.952 198.374 212.491C198.374 220.031 204.486 226.142 212.025 226.142Z" fill="#FFECD4"/>
<path d="M411.72 218.92C419.259 218.92 425.371 212.808 425.371 205.268C425.371 197.729 419.259 191.617 411.72 191.617C404.18 191.617 398.068 197.729 398.068 205.268C398.068 212.808 404.18 218.92 411.72 218.92Z" fill="#FFECD4"/>
<path d="M279.603 158.696L227.501 221.454C227.501 221.454 221.004 224.003 211.429 215.623C205.394 210.344 203.412 201.434 204.675 195.066L271.851 129.245L279.603 158.696Z" fill="#00E86C"/>
<path d="M336.409 144.341L400.869 213.452C400.869 213.452 420.904 204.807 418.098 187.972L363.462 124.049C358.539 118.286 352.072 114.043 344.819 111.812L327.379 106.458L330.737 131.461L336.409 144.341Z" fill="#00E86C"/>
<path d="M313.605 124.117C306.814 126.938 299.016 123.724 296.195 116.933L289.351 100.468L314.354 90.0762L321.032 106.14C323.952 113.143 320.624 121.198 313.605 124.117Z" fill="#FFECD4"/>
<path d="M289.07 100.347L295.915 116.811C297.178 119.837 299.87 122.476 302.858 123.883C306.238 125.471 310.081 125.698 313.174 124.284L312.387 122.234L302.033 97.4727L289.07 100.347Z" fill="#F2B172"/>
<path d="M323.936 99.8475C330.543 99.8475 335.9 94.4907 335.9 87.8827C335.9 81.2748 330.543 75.918 323.936 75.918C317.328 75.918 311.971 81.2748 311.971 87.8827C311.971 94.4907 317.328 99.8475 323.936 99.8475Z" fill="#0000C2"/>
<path d="M314.279 97.7676C310.777 106.004 300.506 109.286 293.382 110.829C291.839 111.162 285.645 110.307 283.762 108.22C281.901 106.147 280.199 102.374 278.241 97.9189C274.406 89.2062 275.389 71.2289 275.389 71.2289C275.571 68.3171 274.194 46.7246 302.518 43.8582C311.896 42.9052 318.862 49.0843 321.637 53.2364C328.762 63.923 329.314 72.4011 321.1 87.7314" fill="#FFECD4"/>
<path opacity="0.54" d="M303.963 89.6602C305.174 91.8232 304.5 95.3324 302.708 97.2837C301.135 98.993 299.206 98.9022 298.216 97.2383C297.217 95.5593 297.384 92.6022 298.745 90.4316C300.303 87.9509 302.738 87.4669 303.963 89.6602Z" fill="#C04C3C"/>
<path d="M295.892 83.0874C296.338 84.1992 295.96 85.7799 295.15 86.5362C294.439 87.2017 293.63 86.9899 293.26 86.1278C292.889 85.258 293.04 83.8967 293.676 82.9967C294.394 81.9757 295.438 81.9605 295.892 83.0874Z" fill="#686868" stroke="#686868" stroke-width="1.3548" stroke-miterlimit="10"/>
<path d="M280.773 81.7491C281.31 82.634 281.159 84.071 280.524 84.8575C279.964 85.5533 279.208 85.5079 278.769 84.8273C278.323 84.139 278.3 82.9289 278.761 82.0441C279.291 81.0382 280.229 80.8491 280.773 81.7491Z" fill="#686868" stroke="#686868" stroke-width="1.3548" stroke-miterlimit="10"/>
<path d="M285.418 82.9595C284.276 82.8309 282.907 91.1125 282.484 93.82C282.408 94.289 282.733 94.7276 283.202 94.8032L286.167 95.2873C286.696 95.3705 287.18 94.9621 287.173 94.4251C287.127 91.4604 286.87 83.1183 285.418 82.9595Z" fill="#F2B172"/>
<path d="M279.793 53.879C280.459 52.1017 294.344 38.1781 312.125 45.2874C329.906 52.3966 332.901 75.5093 319.681 91.2858L308.351 71.0622L279.793 53.879Z" fill="#0B0BFF"/>
<path d="M282.695 57.9934C283.55 63.2573 299.545 79.6162 310.126 81.5599C310.126 81.5599 312.259 64.3766 304.151 57.5018C296.044 50.6346 284.109 52.4724 284.109 52.4724C284.109 52.4724 281.833 52.6691 282.695 57.9934Z" fill="#4B4BFF"/>
<path d="M283.64 52.5103C276.606 52.5859 269.406 61.9943 272.227 78.3305C272.227 78.3305 274.231 76.1675 279.571 70.9187C281.87 68.6574 290.091 59.4304 290.31 58.2506C291.271 53.0624 283.64 52.5103 283.64 52.5103Z" fill="#4B4BFF"/>
<path d="M298.652 105.217C298.766 105.217 308.772 125.191 308.772 125.191C308.772 125.191 309.581 125.244 310.776 125.017C311.555 124.866 312.553 124.601 313.476 124.163C315.42 123.232 309.989 107.804 309.762 107.327C309.536 106.851 306.836 104.03 306.692 104.03C306.541 104.037 298.652 105.217 298.652 105.217Z" fill="#FFECD4"/>
<path d="M24.37 344.006C28.7057 344.006 32.2204 340.491 32.2204 336.155C32.2204 331.819 28.7057 328.305 24.37 328.305C20.0343 328.305 16.5195 331.819 16.5195 336.155C16.5195 340.491 20.0343 344.006 24.37 344.006Z" fill="#545454"/>
<path d="M73.3282 373.176C78.6914 373.176 83.0391 368.828 83.0391 363.465C83.0391 358.102 78.6914 353.754 73.3282 353.754C67.965 353.754 63.6172 358.102 63.6172 363.465C63.6172 368.828 67.965 373.176 73.3282 373.176Z" fill="#545454"/>
<path d="M315.487 179.146C318.023 179.146 320.078 177.091 320.078 174.555C320.078 172.02 318.023 169.964 315.487 169.964C312.952 169.964 310.896 172.02 310.896 174.555C310.896 177.091 312.952 179.146 315.487 179.146Z" stroke="#007135" stroke-width="3.4338" stroke-miterlimit="10" stroke-linecap="round"/>
<path d="M296.112 166.962C298.648 166.962 300.703 164.906 300.703 162.371C300.703 159.836 298.648 157.78 296.112 157.78C293.577 157.78 291.521 159.836 291.521 162.371C291.521 164.906 293.577 166.962 296.112 166.962Z" stroke="#007135" stroke-width="3.4338" stroke-miterlimit="10" stroke-linecap="round"/>
<path d="M324.141 157.924C328.255 157.924 331.591 154.589 331.591 150.475C331.591 146.36 328.255 143.025 324.141 143.025C320.027 143.025 316.691 146.36 316.691 150.475C316.691 154.589 320.027 157.924 324.141 157.924Z" stroke="#007135" stroke-width="3.4338" stroke-miterlimit="10" stroke-linecap="round"/>
<path d="M321.054 161.418L319.375 166.017" stroke="#007135" stroke-width="3.4338" stroke-miterlimit="10" stroke-linecap="round"/>
<path d="M313.832 154.438L304.598 157.985" stroke="#007135" stroke-width="3.4338" stroke-miterlimit="10" stroke-linecap="round"/>
</svg>
