<svg width="431" height="432" viewBox="0 0 431 432" fill="none" xmlns="http://www.w3.org/2000/svg">
<path opacity="0.6" d="M215 431C333.741 431 430 334.741 430 216C430 97.2588 333.741 1 215 1C96.2588 1 0 97.2588 0 216C0 334.741 96.2588 431 215 431Z" fill="#91CEED"/>
<path d="M327.447 364.06L301.551 230.197C301.551 230.197 298.031 213.22 281.139 208.169C276.574 206.803 272.792 206.188 269.767 205.969V223.194C269.767 224.913 269.421 226.547 268.792 228.033C268.516 228.684 268.177 229.299 267.803 229.886C270.863 237.314 276.107 245.93 282.595 256.138C290.836 269.105 299.36 282.517 303.247 296.347C307.912 312.957 304.943 327.084 294.172 339.534C281.669 353.994 266.686 360.686 249.526 359.476C251.688 372.889 248.402 384.448 239.588 394.648C234.351 400.704 223.714 409.829 207.204 409.829C193.804 409.829 176.544 403.824 155.165 385.304C146.62 377.904 138.612 369.352 131.862 360.537V414.258C157.532 425.088 185.739 431.08 215.346 431.08C243.334 431.08 270.078 425.725 294.603 415.991L295.049 354.482L327.447 364.06Z" fill="#2CC674"/>
<path d="M215.431 258.147C202.879 272.663 214.774 291.933 228.542 314.252C232.641 320.901 236.875 327.756 240.486 334.646C252.848 335.764 263.315 332.121 270.114 324.254C282.666 309.738 270.778 290.469 257.01 268.15C252.904 261.5 248.678 254.645 245.066 247.755C232.683 246.631 222.23 250.281 215.431 258.147Z" fill="#2CC674"/>
<path d="M121.593 346.042L114.829 334.038L115.246 333.804L115.663 333.571L115.677 333.592L138.782 322.132L139.199 321.899L145.948 333.995L145.814 334.059C151.977 343.885 159.709 354.376 172.198 365.192C202.985 391.854 212.053 381.37 216.406 376.327C226.266 364.923 217.89 349.799 202.928 326.256C194.687 313.29 186.164 299.877 182.276 286.047C177.612 269.437 180.58 255.31 191.351 242.853C193.662 240.179 196.065 237.767 198.546 235.623H170.834C163.971 235.623 158.416 230.056 158.416 223.194V205.084C155.476 205.134 152.613 205.573 147.044 207.235C130.166 212.286 126.653 229.264 126.653 229.264L101.04 355.741L126.554 353.152C124.915 350.718 123.381 348.278 121.975 345.859L121.593 346.042Z" fill="#2CC674"/>
<path d="M236.648 205.014H233.27V205.056L236.641 205.049C236.641 205.042 236.641 205.028 236.648 205.014Z" fill="#FFEFD5"/>
<path d="M167.413 205.948C168.127 205.898 168.848 205.863 169.576 205.863C169.576 205.863 182.482 206.146 194.935 206.358V205.049L159.504 205.084C163.519 205.127 167.456 205.742 167.456 205.742L167.413 205.948Z" fill="#FFEFD5"/>
<path d="M170.855 235.63H198.567C205.67 229.497 213.459 225.55 221.877 223.81V211.458H194.942V206.365C182.488 206.153 169.583 205.87 169.583 205.87C168.855 205.87 168.134 205.898 167.42 205.955L167.462 205.749C167.462 205.749 163.526 205.134 159.511 205.092H158.677C158.6 205.092 158.515 205.092 158.437 205.092V223.201C158.43 230.063 163.992 235.63 170.855 235.63Z" fill="#FFEFD5"/>
<path d="M221.87 195.365L216.929 190.42H194.935V205.056L221.87 205.028V195.365Z" fill="#FFEFD5"/>
<path d="M214.145 206.598C216.117 206.598 218.795 206.577 221.87 206.535V205.084V205.028L194.935 205.049V206.358C202.511 206.492 209.918 206.598 214.145 206.598Z" fill="#FFEFD5"/>
<path d="M214.145 206.598C209.918 206.598 202.511 206.492 194.935 206.365V211.458H221.87V206.535C218.795 206.57 216.117 206.598 214.145 206.598Z" fill="#FFEFD5"/>
<path d="M215.311 188.793C214.901 188.821 214.498 188.85 214.095 188.85C207.282 188.85 200.702 184.994 194.935 179.335V190.413H216.929L215.311 188.793Z" fill="#FFEFD5"/>
<path d="M267.81 229.886C268.185 229.299 268.524 228.684 268.8 228.033C268.524 228.684 268.185 229.299 267.81 229.886Z" fill="#F2B172"/>
<path d="M233.27 205.063V206.358C234.288 206.337 235.305 206.322 236.323 206.301C236.415 205.884 236.528 205.466 236.634 205.049L233.27 205.063Z" fill="#F2B172"/>
<path d="M269.775 205.976V205.353C269.598 205.544 269.422 205.735 269.252 205.933C269.422 205.948 269.598 205.962 269.775 205.976Z" fill="#F2B172"/>
<path d="M269.124 206.068C263.534 212.526 263.809 220.188 267.81 229.886C268.184 229.299 268.524 228.684 268.799 228.033C269.428 226.547 269.774 224.913 269.774 223.194V205.969C269.598 205.955 269.421 205.94 269.251 205.933C269.209 205.983 269.167 206.025 269.124 206.068Z" fill="#F2B172"/>
<path d="M236.02 222.911C235.072 217.033 235.171 211.508 236.323 206.301C235.306 206.322 234.288 206.337 233.27 206.358V211.458H221.877V223.81C226.407 222.869 231.122 222.572 236.02 222.911Z" fill="#F2B172"/>
<path d="M233.27 190.42H216.93L221.87 195.365V205.028L233.27 205.021V190.42Z" fill="#F2B172"/>
<path d="M233.27 205.063V205.021L221.877 205.028V205.085V206.535C225.333 206.492 229.284 206.429 233.27 206.358V205.063Z" fill="#F2B172"/>
<path d="M233.27 206.358C229.277 206.429 225.326 206.492 221.877 206.535V211.458H233.27V206.358Z" fill="#F2B172"/>
<path d="M233.27 179.441C227.411 184.93 221.05 188.368 215.311 188.793L216.93 190.413H233.27V179.441Z" fill="#F2B172"/>
<path d="M213.353 103.911C205.43 115.06 188.404 131.054 174.417 136.473C174.502 137.081 174.608 137.69 174.721 138.284L250.466 135.709C236.853 129.682 220.937 114.579 213.353 103.911Z" fill="#FFEFD5"/>
<path d="M253.321 139.069C253.47 138.383 253.597 137.69 253.71 136.989C253.646 136.968 253.583 136.94 253.519 136.919C253.463 137.64 253.399 138.355 253.321 139.069Z" fill="#FFEFD5"/>
<path d="M198.172 171.638L196.525 169.99L198.752 167.762C186.489 162.669 177.301 151.654 174.735 138.284H174.637C173.93 146.837 182.588 167.217 194.942 179.335V171.631H198.172V171.638Z" fill="#FFEFD5"/>
<path d="M214.102 170.818C213.883 170.818 213.671 170.804 213.452 170.804L214.286 171.638H221.87H233.263V179.441C243.087 170.238 251.512 155.269 253.314 139.069C249.462 157.207 233.376 170.818 214.102 170.818Z" fill="#FFEFD5"/>
<path d="M194.935 171.638V179.342C200.702 185.001 207.282 188.857 214.095 188.857C214.498 188.857 214.901 188.828 215.311 188.8L198.172 171.645H194.935V171.638Z" fill="#FFEFD5"/>
<path d="M221.87 179.229V171.638H214.286L221.87 179.229Z" fill="#FFEFD5"/>
<path d="M198.744 167.762L196.518 169.99L198.165 171.638H214.279L213.445 170.804C208.243 170.719 203.282 169.65 198.744 167.762Z" fill="#FFEFD5"/>
<path d="M233.27 171.638H221.877V179.229L214.293 171.638H198.179L215.318 188.793C221.057 188.362 227.411 184.931 233.277 179.441V171.638H233.27Z" fill="#FFEFD5"/>
<path d="M198.744 167.762L204.582 161.919L213.452 170.797C213.671 170.797 213.883 170.811 214.102 170.811C233.376 170.811 249.462 157.2 253.321 139.062C253.399 138.348 253.463 137.633 253.519 136.912C252.515 136.565 251.498 136.162 250.466 135.702L174.721 138.277C177.294 151.654 186.475 162.669 198.744 167.762Z" fill="#FFEFD5"/>
<path d="M204.575 161.918L198.737 167.762C203.282 169.65 208.243 170.719 213.445 170.803L204.575 161.918Z" fill="#FFEFD5"/>
<path d="M214.102 54.1592C203.678 54.1592 195.225 62.6127 195.21 73.047H232.987C232.98 62.6127 224.527 54.1592 214.102 54.1592Z" fill="#0B0BFF"/>
<path d="M228.019 85.8439C234.203 86.9757 241.129 89.4304 246.939 94.4672C261.293 106.903 257.519 138.015 257.519 138.015C256.289 137.782 255.01 137.435 253.703 136.989C253.59 137.69 253.462 138.383 253.314 139.069C251.505 155.269 243.087 170.238 233.263 179.441V190.42H243.808C244.486 189.521 245.193 188.623 245.949 187.746C250.148 182.893 257.816 176.067 269.202 173.548C269.732 171.384 269.902 169.113 269.647 166.778L261.753 94.1701C260.452 82.1866 249.307 73.054 235.984 73.054H232.98C232.98 73.061 232.98 73.0681 232.98 73.0681C232.994 77.9917 231.107 82.4837 228.019 85.8439Z" fill="#0B0BFF"/>
<path d="M174.629 138.291H174.728C174.615 137.69 174.509 137.088 174.424 136.48C172.622 137.18 170.869 137.711 169.194 138.022C169.194 138.022 165.42 106.918 179.775 94.4742C186.001 89.0767 193.5 86.6503 199.995 85.6317C197.027 82.2927 195.217 77.8926 195.217 73.0681C195.217 73.061 195.217 73.054 195.217 73.054H193.868C180.75 73.054 169.703 81.9248 168.155 93.7032L158.607 166.347C156.925 179.158 167.993 190.42 182.262 190.42H194.942V179.342C182.573 167.224 173.922 146.844 174.629 138.291Z" fill="#0B0BFF"/>
<path d="M199.988 85.6247C205.784 84.7121 210.773 84.9243 213.353 85.1436C216.131 84.9031 221.679 84.6768 228.019 85.844C231.107 82.4767 232.994 77.9918 232.994 73.0611C232.994 73.0541 232.994 73.047 232.994 73.047H195.217C195.217 73.0541 195.217 73.0611 195.217 73.0611C195.21 77.8857 197.02 82.2857 199.988 85.6247Z" fill="#0B0BFF"/>
<path d="M224.979 88.518C241.475 94.8847 254.211 112.853 254.211 130.672C254.211 132.823 254.042 134.931 253.717 136.982C255.024 137.428 256.296 137.775 257.533 138.008C257.533 138.008 261.307 106.904 246.953 94.4602C241.136 89.4235 234.21 86.9688 228.033 85.8369C227.107 86.8414 226.082 87.7398 224.979 88.518Z" fill="#0B0BFF"/>
<path d="M216.823 86.4028C219.615 86.7777 222.343 87.4993 224.979 88.5179C226.089 87.7327 227.107 86.8414 228.018 85.8439C221.679 84.6838 216.131 84.9031 213.353 85.1436C214.555 85.2497 215.24 85.3558 215.24 85.3558C215.24 85.3558 216.067 85.4407 216.823 86.4028Z" fill="#0B0BFF"/>
<path d="M224.979 88.5181C222.944 89.9541 220.612 91.0011 218.088 91.5458C218.081 92.621 217.975 93.8802 217.742 95.3587C217.417 97.4243 215.827 100.431 213.353 103.911C220.93 114.579 236.846 129.682 250.465 135.716L253.611 135.61C253.589 136.049 253.547 136.487 253.512 136.926C253.575 136.947 253.639 136.975 253.703 136.997C254.028 134.938 254.197 132.83 254.197 130.687C254.204 112.853 241.475 94.8847 224.979 88.5181Z" fill="#0B0BFF"/>
<path d="M218.088 91.5457C220.612 91.001 222.944 89.954 224.979 88.518C222.343 87.4993 219.615 86.7778 216.823 86.4028C217.488 87.2517 218.11 88.7797 218.088 91.5457Z" fill="#0B0BFF"/>
<path d="M202.2 87.7469C201.409 87.1031 200.667 86.3957 199.988 85.6317C193.493 86.6504 185.994 89.0768 179.767 94.4743C165.413 106.911 169.187 138.022 169.187 138.022C170.862 137.711 172.615 137.18 174.417 136.48C174.142 134.584 173.993 132.653 173.993 130.686C174 112.068 185.429 93.2929 202.2 87.7469Z" fill="#0B0BFF"/>
<path d="M202.2 87.7468C204.716 86.9121 207.346 86.3815 210.081 86.1834C210.78 85.4265 211.473 85.3628 211.473 85.3628C211.473 85.3628 212.166 85.2567 213.36 85.1506C210.773 84.9243 205.784 84.7191 199.995 85.6317C200.667 86.3886 201.402 87.096 202.2 87.7468Z" fill="#0B0BFF"/>
<path d="M213.353 103.911C210.88 100.431 209.296 97.4243 208.964 95.3586C208.703 93.6962 208.604 92.3168 208.625 91.1637C206.25 90.4422 204.073 89.2749 202.193 87.7469C185.422 93.3001 173.993 112.068 173.993 130.68C173.993 132.646 174.142 134.584 174.417 136.473C188.411 131.054 205.437 115.06 213.353 103.911Z" fill="#0B0BFF"/>
<path d="M202.2 87.7469C204.08 89.2748 206.257 90.4491 208.632 91.1636C208.674 88.3906 209.381 86.9404 210.081 86.1835C207.345 86.3745 204.709 86.9121 202.2 87.7469Z" fill="#0B0BFF"/>
<path d="M210.074 86.1836C210.83 86.127 211.593 86.0987 212.364 86.0987C213.862 86.0987 215.346 86.2119 216.823 86.4099C216.067 85.4408 215.247 85.363 215.247 85.363C215.247 85.363 214.555 85.2569 213.36 85.1508C212.159 85.2569 211.473 85.363 211.473 85.363C211.473 85.363 210.773 85.4266 210.074 86.1836Z" fill="#0B0BFF"/>
<path d="M218.088 91.5457C216.802 91.8216 215.473 91.9702 214.102 91.9702C212.201 91.9702 210.363 91.6872 208.632 91.1637C208.61 92.3168 208.709 93.6962 208.971 95.3586C209.296 97.4243 210.886 100.431 213.36 103.911C215.834 100.431 217.417 97.4243 217.749 95.3586C217.975 93.8801 218.081 92.621 218.088 91.5457Z" fill="#0B0BFF"/>
<path d="M218.088 91.5457C218.109 88.7797 217.487 87.2517 216.823 86.4028C215.353 86.2047 213.862 86.0916 212.363 86.0916C211.593 86.0916 210.83 86.1269 210.073 86.1765C209.374 86.9334 208.667 88.3835 208.625 91.1566C210.356 91.6801 212.194 91.963 214.095 91.963C215.466 91.9701 216.802 91.8216 218.088 91.5457Z" fill="#0B0BFF"/>
<path d="M250.466 135.716C251.498 136.176 252.515 136.579 253.519 136.926C253.554 136.487 253.597 136.049 253.618 135.61L250.466 135.716Z" fill="#0B0BFF"/>
<path d="M257.986 205.014C257.986 205.007 257.993 205.007 257.993 205L246.939 205.007C246.939 205.014 246.932 205.028 246.932 205.035L257.986 205.014Z" fill="#515151"/>
<path d="M221.87 235.631H257.35C258.085 235.631 258.792 235.553 259.491 235.432C258.792 235.553 258.078 235.631 257.35 235.631H221.87Z" fill="#515151"/>
<path d="M126.548 353.152C128.209 355.621 129.983 358.09 131.863 360.537V352.607L126.548 353.152Z" fill="#515151"/>
<path d="M241.765 205.042C241.765 205.028 241.772 205.021 241.772 205.007L236.648 205.014C236.648 205.028 236.641 205.042 236.641 205.056L241.765 205.042Z" fill="#515151"/>
<path d="M269.774 204.986L263.753 204.993L263.746 205L269.774 204.986Z" fill="#515151"/>
<path d="M267.647 230.148C267.202 230.806 266.693 231.429 266.128 231.987C266.693 231.429 267.202 230.806 267.647 230.148Z" fill="#515151"/>
<path d="M267.647 230.148C267.704 230.063 267.753 229.971 267.803 229.894C267.753 229.971 267.704 230.063 267.647 230.148Z" fill="#515151"/>
<path d="M264.035 233.664C264.12 233.607 264.212 233.565 264.297 233.508C264.212 233.565 264.12 233.607 264.035 233.664Z" fill="#515151"/>
<path d="M266.135 231.987C265.569 232.553 264.954 233.056 264.297 233.508C264.954 233.056 265.569 232.553 266.135 231.987Z" fill="#515151"/>
<path d="M246.931 205.035C246.931 205.028 246.939 205.014 246.939 205.007L241.765 205.014C241.765 205.028 241.758 205.035 241.758 205.049L246.931 205.035Z" fill="#515151"/>
<path d="M257.985 205.014L263.745 205C263.745 205 263.745 204.993 263.753 204.993L257.992 205C257.992 205 257.985 205.007 257.985 205.014Z" fill="#515151"/>
<path d="M259.491 235.432C261.138 235.142 262.679 234.534 264.036 233.664C262.679 234.534 261.145 235.142 259.491 235.432Z" fill="#515151"/>
<path d="M246.931 205.035L241.765 205.049C241.652 205.438 241.539 205.827 241.44 206.216C243.228 206.181 244.96 206.146 246.585 206.117C246.698 205.75 246.804 205.389 246.931 205.035Z" fill="#515151"/>
<path d="M365.924 241.834C366.121 243.136 365.966 244.232 365.719 245.032C365.33 246.305 364.383 248.06 362.114 249.276L356.834 252.361L368.263 246.411L365.924 241.834Z" fill="#515151"/>
<path d="M350.078 255.884C347.406 256.485 344.699 255.537 342.848 253.273L345.576 258.225L350.078 255.884Z" fill="#515151"/>
<path d="M349.414 245.301L355.301 241.863C354.806 241.014 354.234 240.045 353.584 238.998L347.074 241.566C347.873 242.818 348.657 244.07 349.414 245.301Z" fill="#515151"/>
<path d="M355.294 241.863L349.406 245.301C348.65 244.063 347.873 242.818 347.067 241.559L342.402 243.398C343.759 245.499 345.053 247.586 346.304 249.658C347.152 251.087 348.488 251.547 349.915 250.698L359.725 244.968C360.976 244.325 361.641 243.157 360.566 241.184C359.853 239.889 359.068 238.538 358.227 237.151L353.576 238.984C354.234 240.052 354.806 241.014 355.294 241.863ZM347.406 246.475C347.413 246.475 347.413 246.468 347.42 246.468C347.413 246.468 347.406 246.475 347.406 246.475Z" fill="#515151"/>
<path d="M338.268 244.968L337.858 245.202L338.297 245.025L338.268 244.968Z" fill="#515151"/>
<path d="M365.924 241.835L368.263 246.411L356.835 252.361L352.389 254.957C351.64 255.403 350.856 255.707 350.078 255.877L345.583 258.218L342.855 253.266C342.579 252.927 342.318 252.566 342.085 252.17C340.996 250.366 339.865 248.534 338.685 246.68L345.399 258.855L368.914 246.602L364.659 238.29L364.518 238.156C364.638 238.368 364.765 238.588 364.885 238.8C365.472 239.917 365.783 240.929 365.924 241.835Z" fill="#515151"/>
<path d="M342.848 253.273L338.296 245.025L337.851 245.202H337.844L338.664 246.694C339.851 248.548 340.982 250.38 342.064 252.184C342.311 252.573 342.573 252.934 342.848 253.273Z" fill="#515151"/>
<path d="M221.869 235.631H216.816C210.328 238.34 204.349 242.882 198.8 249.298C179.711 271.376 195.74 296.588 211.24 320.972C224.993 342.619 239.221 364.994 223.855 382.764C206.052 403.35 182.177 386.846 165.773 372.634C151.963 360.672 143.63 349.184 136.965 338.438L130.809 341.487C135.318 349.113 145.142 363.615 161.603 377.869C190.92 403.258 215.975 406.936 232.16 388.218C240.274 378.838 242.274 368.298 238.471 355.055L236.259 347.351L244.126 348.858C260.869 352.063 274.814 346.913 286.751 333.104C305.841 311.026 289.811 285.814 274.312 261.43C268.806 252.771 263.23 243.992 259.498 235.432C258.798 235.553 258.084 235.631 257.356 235.631H221.869ZM277.549 330.692C269.704 339.761 257.978 344.663 244.62 344.663C242.012 344.663 239.348 344.479 236.634 344.097L234.075 343.744L232.916 341.438C229.248 334.13 224.633 326.653 220.173 319.416C205.691 295.951 190.722 271.687 207.996 251.703C217.367 240.865 232.28 235.97 248.91 238.29L251.469 238.644L252.628 240.95C256.296 248.258 260.911 255.735 265.371 262.972C279.853 286.444 294.829 310.715 277.549 330.692Z" fill="#515151"/>
<path d="M211.714 254.929C191.981 277.757 221.898 308.529 237.313 339.23C254.028 341.558 266.453 336.012 273.832 327.473C293.565 304.645 263.647 273.873 248.233 243.172C231.518 240.837 219.093 246.39 211.714 254.929ZM270.114 324.255C263.315 332.121 252.848 335.764 240.487 334.646C236.875 327.756 232.641 320.902 228.542 314.252C214.774 291.94 202.879 272.67 215.431 258.147C222.231 250.281 232.684 246.631 245.059 247.756C248.671 254.653 252.904 261.5 257.004 268.15C270.779 290.469 282.667 309.739 270.114 324.255Z" fill="#515151"/>
<path d="M155.165 385.311C176.552 403.831 193.812 409.837 207.205 409.837C223.715 409.837 234.359 400.711 239.589 394.656C248.41 384.455 251.689 372.896 249.526 359.483C266.687 360.693 281.67 354.001 294.173 339.542C304.937 327.091 307.906 312.957 303.248 296.354C299.368 282.525 290.844 269.119 282.596 256.145C276.108 245.938 270.864 237.314 267.803 229.894C267.747 229.978 267.704 230.07 267.648 230.148C267.203 230.806 266.694 231.429 266.128 231.987C265.563 232.553 264.948 233.056 264.291 233.508C264.206 233.565 264.114 233.614 264.029 233.664C277.698 264.627 319.376 302.87 290.455 336.323C277.755 351.009 262.227 357.34 243.187 353.697C246.911 366.642 246.169 379.538 235.872 391.444C219.743 410.098 193.084 411.655 158.381 381.597C143.461 368.673 132.803 354.652 126.386 343.68L121.968 345.866C123.375 348.285 124.908 350.726 126.548 353.159L131.863 352.622V360.552C138.613 369.359 146.62 377.911 155.165 385.311Z" fill="#515151"/>
<path d="M168.996 368.913C196.956 393.128 210.702 390.461 220.145 379.545C248.458 346.8 155.454 291.926 195.09 246.079C198.694 241.912 202.525 238.418 206.603 235.63H198.567C196.086 237.774 193.683 240.179 191.372 242.86C180.608 255.311 177.64 269.445 182.297 286.055C186.177 299.884 194.701 313.29 202.949 326.264C217.911 349.806 226.287 364.93 216.427 376.334C212.074 381.378 202.999 391.861 172.219 365.199C159.723 354.376 151.991 343.892 145.835 334.066L141.411 336.259C147.948 346.757 155.977 357.637 168.996 368.913Z" fill="#515151"/>
<path d="M165.774 372.634C182.178 386.846 206.053 403.357 223.856 382.764C239.221 364.994 224.994 342.612 211.24 320.972C195.741 296.588 179.718 271.376 198.801 249.298C204.349 242.881 210.322 238.34 216.817 235.63H206.604C202.526 238.418 198.695 241.912 195.091 246.079C155.448 291.926 248.459 346.8 220.146 379.545C210.71 390.461 196.957 393.128 168.997 368.913C155.978 357.637 147.956 346.757 141.397 336.245L136.966 338.438C143.631 349.184 151.964 360.672 165.774 372.634Z" fill="#515151"/>
<path d="M274.306 261.43C289.805 285.814 305.828 311.026 286.745 333.104C274.8 346.92 260.863 352.07 244.119 348.858L236.253 347.351L238.465 355.055C242.275 368.298 240.268 378.838 232.154 388.218C215.969 406.936 190.907 403.258 161.597 377.869C145.143 363.615 135.319 349.113 130.803 341.487L126.378 343.673C132.796 354.638 143.454 368.666 158.374 381.59C193.076 411.648 219.736 410.098 235.864 391.437C246.162 379.531 246.904 366.635 243.179 353.69C262.22 357.34 277.748 351.009 290.448 336.316C319.369 302.87 277.691 264.62 264.022 233.657C262.665 234.527 261.131 235.135 259.478 235.425C263.223 243.985 268.8 252.764 274.306 261.43Z" fill="#515151"/>
<path d="M251.469 238.651L248.911 238.297C232.28 235.977 217.367 240.865 207.996 251.71C190.722 271.694 205.692 295.958 220.173 319.423C224.633 326.653 229.248 334.137 232.916 341.444L234.075 343.751L236.634 344.104C239.348 344.479 242.013 344.67 244.62 344.67C257.986 344.67 269.711 339.768 277.549 330.699C294.822 310.715 279.853 286.451 265.371 262.986C260.912 255.756 256.296 248.272 252.628 240.964L251.469 238.651ZM273.831 327.473C266.453 336.012 254.028 341.558 237.312 339.23C221.898 308.529 191.98 277.75 211.713 254.929C219.092 246.397 231.517 240.844 248.232 243.171C263.647 273.873 293.564 304.645 273.831 327.473Z" fill="#515151"/>
<path d="M261.689 199.631C268.177 192.125 275.676 189.005 284.631 190.109C294.392 191.304 305.884 197.735 319.772 209.761C332.564 220.839 340.657 231.513 347.074 241.559L353.584 238.991C348.65 231.004 339.109 217.648 323.949 204.526C294.632 179.137 269.577 175.458 253.392 194.176C250.43 197.607 248.289 201.187 246.939 205L257.993 204.993C258.961 203.168 260.177 201.378 261.689 199.631Z" fill="#515151"/>
<path d="M221.871 235.631V233.919C220.153 234.371 218.464 234.937 216.817 235.631H221.871Z" fill="#515151"/>
<path d="M246.585 206.11C251.922 206.004 256.12 205.912 257.548 205.884C257.689 205.594 257.83 205.304 257.986 205.014L246.932 205.035C246.805 205.389 246.699 205.75 246.585 206.11Z" fill="#515151"/>
<path d="M257.548 205.877C256.12 205.905 251.922 205.997 246.586 206.103C244.621 212.435 244.797 219.402 247.08 227.34L249.293 235.043L241.426 233.536C234.436 232.199 227.934 232.32 221.863 233.918V235.63H257.343C258.078 235.63 258.784 235.553 259.484 235.432C254.968 225.048 253.173 214.988 257.548 205.877Z" fill="#515151"/>
<path d="M327.165 200.812C341.385 213.128 351.732 226.448 358.234 237.165L361.86 235.737L362.185 235.383L363.754 236.854C355.789 223.039 343.738 208.657 330.38 197.091C303.771 174.044 283.543 170.379 269.209 173.548C268.715 175.557 267.909 177.46 266.842 179.222C282.412 174.192 302.809 179.71 327.165 200.812Z" fill="#515151"/>
<path d="M241.772 205.014C243.2 200.225 245.737 195.52 249.674 190.965C249.95 190.646 250.233 190.328 250.522 190.017C249.045 190.279 247.519 190.42 245.95 190.42H243.815C240.366 195.004 237.977 199.857 236.648 205.021L241.772 205.014Z" fill="#515151"/>
<path d="M337.851 245.202L338.268 244.968L338.296 245.025L342.403 243.405C336.162 233.749 328.437 223.781 316.549 213.481C288.589 189.267 274.835 191.934 265.4 202.849C264.792 203.549 264.241 204.264 263.746 204.993L269.768 204.986V205.353C273.867 200.925 278.108 199.227 283.43 199.878C291.077 200.819 301.141 206.648 313.333 217.202C324.535 226.908 331.9 236.331 337.745 245.258L337.851 245.202Z" fill="#515151"/>
<path d="M221.87 228.846V223.802C213.452 225.543 205.664 229.49 198.561 235.623H206.597C211.353 232.383 216.435 230.105 221.87 228.846Z" fill="#515151"/>
<path d="M245.956 187.746C245.193 188.623 244.493 189.522 243.815 190.42H245.949C247.518 190.42 249.045 190.279 250.522 190.017C255.151 184.945 260.615 181.238 266.841 179.229C267.909 177.467 268.721 175.557 269.209 173.555C257.823 176.067 250.155 182.886 245.956 187.746Z" fill="#515151"/>
<path d="M263.746 205C263.485 205.382 263.23 205.771 262.997 206.16C264.411 205.941 266.488 205.771 269.245 205.933C269.422 205.735 269.591 205.537 269.768 205.353V204.986L263.746 205Z" fill="#515151"/>
<path d="M236.634 205.056C236.528 205.474 236.415 205.884 236.323 206.308C238.055 206.28 239.772 206.245 241.44 206.209C241.539 205.82 241.652 205.431 241.765 205.042L236.634 205.056Z" fill="#515151"/>
<path d="M242.359 228.705C240.182 221.129 239.539 213.566 241.44 206.209C239.772 206.245 238.055 206.273 236.323 206.308C235.171 211.515 235.072 217.04 236.019 222.918C231.122 222.572 226.407 222.876 221.877 223.81V228.853C228.21 227.382 235.023 227.304 242.359 228.705Z" fill="#515151"/>
<path d="M269.124 206.068C269.167 206.018 269.202 205.976 269.244 205.933C266.481 205.771 264.403 205.941 262.997 206.16C258.106 214.274 259.583 223.583 264.036 233.664C264.12 233.607 264.212 233.565 264.297 233.508C264.954 233.063 265.576 232.553 266.135 231.987C266.7 231.421 267.202 230.806 267.654 230.148C267.711 230.063 267.76 229.971 267.81 229.893C263.809 220.188 263.541 212.534 269.124 206.068Z" fill="#515151"/>
<path d="M319.772 209.76C305.884 197.735 294.392 191.304 284.631 190.109C275.677 189.005 268.178 192.125 261.69 199.63C260.177 201.378 258.961 203.167 257.993 205L263.753 204.993C264.255 204.271 264.799 203.557 265.407 202.849C274.843 191.934 288.596 189.267 316.556 213.481C328.444 223.774 336.169 233.749 342.41 243.405L347.075 241.566C340.657 231.52 332.565 220.846 319.772 209.76Z" fill="#515151"/>
<path d="M241.773 205.014L246.947 205.007C248.296 201.194 250.431 197.614 253.399 194.183C269.584 175.465 294.639 179.144 323.956 204.533C339.117 217.662 348.651 231.018 353.591 238.998L358.242 237.166C351.747 226.448 341.399 213.128 327.172 200.812C302.817 179.717 282.419 174.192 266.849 179.229C263.513 184.711 257.612 188.779 250.53 190.017C250.247 190.328 249.964 190.646 249.682 190.965C245.738 195.52 243.201 200.218 241.773 205.014Z" fill="#515151"/>
<path d="M221.87 233.919V228.846C216.435 230.106 211.354 232.384 206.597 235.631H216.81C218.471 234.937 220.153 234.371 221.87 233.919Z" fill="#515151"/>
<path d="M266.841 179.222C260.615 181.238 255.151 184.938 250.522 190.01C257.597 188.772 263.505 184.711 266.841 179.222Z" fill="#515151"/>
<path d="M257.548 205.877C257.887 205.87 258.078 205.863 258.078 205.863C259.619 205.863 261.138 205.99 262.63 206.216C262.743 206.195 262.87 206.174 262.997 206.16C263.23 205.771 263.485 205.382 263.746 205L257.986 205.014C257.831 205.297 257.689 205.587 257.548 205.877Z" fill="#515151"/>
<path d="M258.078 205.87C258.078 205.87 257.894 205.877 257.548 205.884C253.173 214.995 254.968 225.048 259.491 235.439C261.138 235.149 262.679 234.541 264.036 233.671C259.583 223.59 258.106 214.281 262.997 206.167C262.87 206.188 262.742 206.202 262.629 206.224C261.138 205.997 259.618 205.87 258.078 205.87Z" fill="#515151"/>
<path d="M241.434 233.544L249.3 235.05L247.088 227.347C244.805 219.403 244.628 212.442 246.593 206.11C244.967 206.146 243.236 206.174 241.448 206.209C239.547 213.566 240.19 221.129 242.367 228.705C235.03 227.297 228.217 227.382 221.884 228.846V233.919C227.941 232.327 234.444 232.2 241.434 233.544Z" fill="#515151"/>
<path d="M359.726 244.975L349.916 250.705C348.488 251.554 347.152 251.095 346.304 249.666C345.06 247.593 343.767 245.506 342.403 243.405L338.296 245.025L342.848 253.273C344.7 255.53 347.407 256.478 350.078 255.884L356.835 252.361L362.115 249.276C364.383 248.053 365.33 246.298 365.719 245.032C365.967 244.233 366.122 243.143 365.924 241.835L364.27 238.595L361.542 236.076L361.867 235.723L358.242 237.152C359.083 238.538 359.867 239.889 360.581 241.184C361.641 243.164 360.977 244.332 359.726 244.975Z" fill="#515151"/>
<path d="M364.652 238.305L368.907 246.617L345.393 258.869L338.678 246.694C338.374 246.22 338.063 245.739 337.752 245.265L337.441 245.435L345.202 259.506L369.557 246.822L365.09 238.092L363.769 236.854C364.023 237.293 364.278 237.739 364.518 238.177L364.652 238.305Z" fill="#515151"/>
<path d="M337.851 245.202L337.745 245.258C338.056 245.739 338.367 246.213 338.671 246.687L337.851 245.202Z" fill="#515151"/>
<path d="M361.86 235.729L364.503 238.17C364.256 237.731 364.008 237.286 363.754 236.847L362.185 235.376L361.86 235.729Z" fill="#515151"/>
<path d="M364.263 238.602L365.917 241.842C365.775 240.936 365.464 239.924 364.871 238.828C364.751 238.616 364.623 238.396 364.503 238.184L361.86 235.744L361.535 236.097L364.263 238.602Z" fill="#515151"/>
<path d="M197.522 144.014C198.896 144.014 200.009 142.899 200.009 141.524C200.009 140.149 198.896 139.034 197.522 139.034C196.148 139.034 195.034 140.149 195.034 141.524C195.034 142.899 196.148 144.014 197.522 144.014Z" fill="#686868"/>
<path d="M229.842 144.014C231.216 144.014 232.33 142.899 232.33 141.524C232.33 140.149 231.216 139.034 229.842 139.034C228.468 139.034 227.354 140.149 227.354 141.524C227.354 142.899 228.468 144.014 229.842 144.014Z" fill="#686868"/>
<path d="M212.795 139.812C213.113 138.128 215.184 138.128 215.502 139.812L216.661 145.903L218.675 156.472C218.929 157.816 218.053 159.089 216.866 159.089H214.138H211.409C210.229 159.089 209.346 157.816 209.6 156.472L211.614 145.903L212.795 139.812Z" fill="#F2B172"/>
<g opacity="0.53">
<path opacity="0.53" d="M193.988 161.126C197.384 161.126 200.137 158.371 200.137 154.972C200.137 151.573 197.384 148.817 193.988 148.817C190.592 148.817 187.839 151.573 187.839 154.972C187.839 158.371 190.592 161.126 193.988 161.126Z" fill="#C04C3C"/>
</g>
<g opacity="0.53">
<path opacity="0.53" d="M234.203 161.536C237.599 161.536 240.352 158.781 240.352 155.382C240.352 151.983 237.599 149.228 234.203 149.228C230.807 149.228 228.054 151.983 228.054 155.382C228.054 158.781 230.807 161.536 234.203 161.536Z" fill="#C04C3C"/>
</g>
<path d="M236.634 323.031L228.917 326.879L209.424 287.752L217.142 283.904C225.171 279.9 234.924 283.161 238.924 291.197L243.921 301.228C247.929 309.264 244.663 319.027 236.634 323.031Z" fill="#FFEFD5"/>
<path d="M184.029 373.752L192.199 371L206.13 412.44L197.96 415.192C189.457 418.057 180.248 413.48 177.385 404.97L173.816 394.344C170.954 385.834 175.527 376.617 184.029 373.752Z" fill="#FFEFD5"/>
<path d="M106.15 329.121L101.683 350.648C96.4177 369.904 117.416 386.337 135.566 377.154L136.732 376.567L236.691 327.049L211.855 281.23L106.15 329.121Z" fill="#4AFF9F"/>
<path d="M296.469 343.531C296.469 343.531 303.721 339.888 316.415 347.62C334.07 358.38 331.264 384.398 311.601 389.407L310.336 389.732L202.787 418.106L187.026 367.859L296.469 343.531Z" fill="#4AFF9F"/>
</svg>
