<svg width="247" height="70" viewBox="0 0 247 70" fill="none" xmlns="http://www.w3.org/2000/svg">
<path d="M10 26C4.48 26 0 30.48 0 36C0 41.52 4.48 46 10 46C15.52 46 20 41.52 20 36C20 30.48 15.52 26 10 26ZM10 42C6.68 42 4 39.32 4 36C4 32.68 6.68 30 10 30C13.32 30 16 32.68 16 36C16 39.32 13.32 42 10 42Z" fill="#0000FF"/>
<path d="M38 46C32.48 46 28 50.48 28 56C28 61.52 32.48 66 38 66C43.52 66 48 61.52 48 56C48 50.48 43.52 46 38 46ZM38 62C34.68 62 32 59.32 32 56C32 52.68 34.68 50 38 50C41.32 50 44 52.68 44 56C44 59.32 41.32 62 38 62Z" fill="#0000FF"/>
<path d="M66 2C58.28 2 52 8.28 52 16C52 23.72 58.28 30 66 30C73.72 30 80 23.72 80 16C80 8.28 73.72 2 66 2ZM66 26C60.48 26 56 21.52 56 16C56 10.48 60.48 6 66 6C71.52 6 76 10.48 76 16C76 21.52 71.52 26 66 26Z" fill="#0000FF"/>
<path d="M48 14H44C39.6 14 36 17.6 36 22V34H24C22.88 34 22 34.88 22 36C22 37.12 22.88 38 24 38H36V42C36 43.12 36.88 44 38 44C39.12 44 40 43.12 40 42V22C40 19.8 41.8 18 44 18H48C49.12 18 50 17.12 50 16C50 14.88 49.12 14 48 14Z" fill="#0000FF"/>
<path d="M114.4 8.31982H112.64C112.4 8.31982 112.32 8.43982 112.32 8.63982V21.5998C110.68 22.3598 109.12 22.7598 107.88 22.7598C105.76 22.7598 104.32 21.6398 104.32 19.1198V8.63982C104.32 8.39982 104.2 8.31982 103.96 8.31982H102.2C101.96 8.31982 101.84 8.43982 101.84 8.63982V19.3598C101.84 22.9198 104.12 24.7998 107.16 24.7998C108.72 24.7998 110.56 24.3598 112.6 23.1198L112.84 24.1598C112.92 24.4398 113 24.5198 113.24 24.5198H114.4C114.64 24.5198 114.76 24.3998 114.76 24.1998V8.63982C114.72 8.39982 114.64 8.31982 114.4 8.31982Z" fill="#0000FF"/>
<path d="M135.8 8.08008C133.6 8.08008 130.24 8.68008 128.32 10.2801L127.96 8.68008C127.88 8.40008 127.8 8.32007 127.6 8.32007H120.84C120.6 8.32007 120.52 8.44006 120.52 8.64006V10.0801C120.52 10.3201 120.64 10.4001 120.84 10.4001H126.079V24.2001C126.079 24.4401 126.2 24.5201 126.4 24.5201H128.16C128.4 24.5201 128.52 24.4001 128.52 24.2001V12.0001C130.16 10.7601 132.72 10.4001 135.8 10.4001C136.04 10.4001 136.12 10.2801 136.12 10.0801V8.40007C136.16 8.16007 136.04 8.08008 135.8 8.08008Z" fill="#0000FF"/>
<path d="M149.4 8.08008C144.24 8.08008 141.92 11.5601 141.92 16.4401C141.92 21.6001 144.96 24.8001 149.88 24.8001C151.88 24.8001 153.6 24.4801 155.6 23.6001C155.96 23.4801 155.96 23.3201 155.88 23.0801L155.48 21.8001C155.4 21.6001 155.2 21.4801 154.96 21.6001C153.32 22.3201 151.84 22.6401 149.8 22.6401C146.56 22.6401 144.8 20.7201 144.56 17.2401H155.88C156.12 17.2401 156.24 17.1201 156.24 16.8801V16.0801C156.2 11.2001 154.56 8.08008 149.4 8.08008ZM144.56 15.2801C144.88 11.7601 146.6 10.0401 149.44 10.0401C152.56 10.0401 153.72 12.1601 153.64 15.2801H144.56Z" fill="#0000FF"/>
<path d="M168.8 24.8C170.24 24.8 172.04 24.36 173.8 23.12L174.04 24.16C174.12 24.44 174.2 24.52 174.44 24.52H175.6C175.84 24.52 175.96 24.4 175.96 24.2V0.319995C175.96 0.0799951 175.84 0 175.6 0H173.84C173.6 0 173.52 0.119995 173.52 0.319995V9.51999C172.28 8.55999 170.88 8.03999 169.24 8.03999C164.36 8.03999 162.36 11.24 162.36 16.4C162.32 21.68 164.08 24.8 168.8 24.8ZM169.52 10.12C170.88 10.12 172.36 10.6 173.48 11.28V21.6C172.12 22.36 170.44 22.76 169.4 22.76C166.52 22.76 164.92 21.08 164.92 16.44C164.92 12.32 166.52 10.12 169.52 10.12Z" fill="#0000FF"/>
<path d="M183.76 24.5601H185.52C185.76 24.5601 185.88 24.4401 185.88 24.2401V11.2801C187.52 10.5201 189.08 10.1201 190.32 10.1201C192.44 10.1201 193.88 11.2401 193.88 13.7601V24.2401C193.88 24.4801 194 24.5601 194.2 24.5601H195.96C196.2 24.5601 196.28 24.4401 196.28 24.2401V13.5201C196.28 9.96007 194 8.08008 190.96 8.08008C189.4 8.08008 187.56 8.52006 185.52 9.76006L185.28 8.72007C185.2 8.44007 185.12 8.36006 184.88 8.36006H183.72C183.48 8.36006 183.36 8.48008 183.36 8.68008V24.2401C183.4 24.4401 183.52 24.5601 183.76 24.5601Z" fill="#0000FF"/>
<path d="M210.72 4.91999C211.96 4.91999 212.68 4.15998 212.68 2.95998C212.68 1.75999 211.96 1 210.72 1C209.48 1 208.76 1.75999 208.76 2.95998C208.76 4.15998 209.44 4.91999 210.72 4.91999Z" fill="#0000FF"/>
<path d="M217.4 22.4398H212.28V8.63982C212.28 8.39982 212.161 8.31982 211.921 8.31982H203.8C203.56 8.31982 203.48 8.43982 203.48 8.63982V10.0798C203.48 10.3198 203.6 10.3998 203.8 10.3998H209.8V22.4398H203.8C203.56 22.4398 203.48 22.5598 203.48 22.7998V24.2398C203.48 24.4798 203.6 24.5598 203.8 24.5598H217.4C217.64 24.5598 217.721 24.4398 217.721 24.2398V22.7998C217.761 22.5598 217.64 22.4398 217.4 22.4398Z" fill="#0000FF"/>
<path d="M229.24 16L238.04 8.84004C238.28 8.64004 238.16 8.32004 237.84 8.32004H235.36C235.24 8.32004 235.16 8.36004 235.08 8.44004L226.2 15.6801V0.360034C226.2 0.120034 226.08 0.0400391 225.84 0.0400391H224.08C223.84 0.0400391 223.76 0.160034 223.76 0.360034V24.24C223.76 24.48 223.88 24.56 224.08 24.56H225.84C226.08 24.56 226.2 24.44 226.2 24.24V16.24L235.44 24.4C235.56 24.52 235.64 24.56 235.76 24.56H238.48C238.8 24.56 238.92 24.24 238.68 24L229.24 16Z" fill="#0000FF"/>
<path d="M244.96 20.8398C243.72 20.8398 243 21.5999 243 22.7999C243 24.0399 243.72 24.7598 244.96 24.7598C246.2 24.7598 246.92 23.9999 246.92 22.7999C246.92 21.5999 246.2 20.8398 244.96 20.8398Z" fill="#0000FF"/>
<path d="M114.4 38H112.64C112.4 38 112.32 38.12 112.32 38.36V47.56C111.08 46.6 109.68 46.08 108.04 46.08C103.16 46.08 101.16 49.28 101.16 54.44C101.16 59.68 102.92 62.8 107.64 62.8C109.08 62.8 110.88 62.36 112.64 61.12L112.88 62.16C112.96 62.44 113.04 62.52 113.28 62.52H114.44C114.68 62.52 114.8 62.4 114.8 62.2V38.32C114.72 38.12 114.64 38 114.4 38ZM112.28 59.6C110.92 60.36 109.24 60.76 108.2 60.76C105.32 60.76 103.72 59.04 103.72 54.44C103.72 50.32 105.32 48.12 108.32 48.12C109.68 48.12 111.16 48.6 112.28 49.28V59.6Z" fill="#0000FF"/>
<path d="M135.8 60.4398H130.68V46.6398C130.68 46.3998 130.56 46.3198 130.32 46.3198H122.2C121.96 46.3198 121.88 46.4398 121.88 46.6398V48.0798C121.88 48.3198 122 48.3998 122.2 48.3998H128.2V60.4398H122.2C121.96 60.4398 121.88 60.5598 121.88 60.7998V62.2398C121.88 62.4798 122 62.5598 122.2 62.5598H135.8C136.04 62.5598 136.12 62.4398 136.12 62.2398V60.7998C136.16 60.5598 136.04 60.4398 135.8 60.4398Z" fill="#0000FF"/>
<path d="M131.08 40.92C131.08 39.68 130.36 38.96 129.12 38.96C127.88 38.96 127.16 39.72 127.16 40.92C127.16 42.12 127.88 42.88 129.12 42.88C130.36 42.92 131.08 42.16 131.08 40.92Z" fill="#0000FF"/>
<path d="M155.2 46.32H154.04C153.8 46.32 153.68 46.4401 153.64 46.6801L153.4 47.72C151.84 46.52 150.44 46.04 148.8 46.04C143.92 46.04 141.92 49.24 141.92 54.4C141.92 59.64 143.68 62.76 148.4 62.76C149.84 62.76 151.44 62.3601 153.08 61.2801V64.04C153.08 66.24 152.04 67.4 149.84 67.4H143.96C143.72 67.4 143.64 67.52 143.64 67.72V69.16C143.64 69.4 143.76 69.52 143.96 69.52H150.44C153.52 69.52 155.56 67.4801 155.56 64.4001V46.6C155.52 46.4 155.44 46.32 155.2 46.32ZM153.08 59.6C151.64 60.3601 150.04 60.76 149 60.76C146.12 60.76 144.52 59.04 144.52 54.44C144.52 50.32 146.12 48.12 149.12 48.12C150.48 48.12 151.96 48.6001 153.08 49.2801V59.6Z" fill="#0000FF"/>
<path d="M176.6 60.4398H171.48V46.6398C171.48 46.3998 171.36 46.3198 171.12 46.3198H163C162.76 46.3198 162.68 46.4398 162.68 46.6398V48.0798C162.68 48.3198 162.8 48.3998 163 48.3998H169V60.4398H163C162.76 60.4398 162.68 60.5598 162.68 60.7998V62.2398C162.68 62.4798 162.8 62.5598 163 62.5598H176.6C176.84 62.5598 176.92 62.4398 176.92 62.2398V60.7998C176.96 60.5598 176.84 60.4398 176.6 60.4398Z" fill="#0000FF"/>
<path d="M167.92 40.92C167.92 42.16 168.64 42.88 169.88 42.88C171.12 42.88 171.84 42.12 171.84 40.92C171.84 39.72 171.12 38.96 169.88 38.96C168.64 38.96 167.92 39.72 167.92 40.92Z" fill="#0000FF"/>
<path d="M196.68 46.3199H189.76V40.7199C189.76 40.4799 189.64 40.3599 189.4 40.3599H187.64C187.4 40.3599 187.32 40.4799 187.32 40.7199V46.3199H182.08C181.84 46.3199 181.76 46.4399 181.76 46.6399V48.0799C181.76 48.3199 181.88 48.3999 182.08 48.3999H187.32V57.4399C187.32 60.5199 189.36 62.5599 192.44 62.5599H196.72C196.96 62.5599 197.08 62.4399 197.08 62.2399V60.7999C197.08 60.5599 196.96 60.4399 196.72 60.4399H193C190.8 60.4399 189.76 59.2799 189.76 57.0799V48.3999H196.68C196.92 48.3999 197.04 48.2799 197.04 48.0799V46.6399C197 46.3999 196.92 46.3199 196.68 46.3199Z" fill="#0000FF"/>
<path d="M211.64 46.3198H205.16C204.92 46.3198 204.84 46.4398 204.84 46.6398V48.0798C204.84 48.3198 204.96 48.3998 205.16 48.3998H211.04C213.24 48.3998 214.28 49.5598 214.28 51.7598V52.9998H210.16C205.92 52.9998 203.48 54.6798 203.48 58.2398C203.48 60.7998 205.32 62.7598 209.16 62.7598C211.24 62.7598 213.12 62.1598 214.6 61.0798L214.84 62.1198C214.92 62.3998 215 62.4798 215.24 62.4798H216.4C216.64 62.4798 216.76 62.3598 216.76 62.1598V51.3598C216.72 48.3598 214.68 46.3198 211.64 46.3198ZM214.28 59.5998C213.08 60.2798 211.12 60.8398 209.4 60.8398C207 60.8398 206.04 59.6398 206.04 58.1198C206.04 55.9598 207.36 55.0398 209.8 55.0398H214.24V59.5998H214.28Z" fill="#0000FF"/>
<path d="M237.8 60.44H234.88C232.68 60.44 231.64 59.28 231.64 57.08V38.36C231.64 38.12 231.52 38 231.32 38H223.52C223.28 38 223.2 38.12 223.2 38.36V39.8C223.2 40.04 223.32 40.12 223.52 40.12H229.2V57.48C229.2 60.56 231.24 62.6 234.32 62.6H237.84C238.08 62.6 238.16 62.48 238.16 62.28V60.84C238.16 60.56 238.04 60.44 237.8 60.44Z" fill="#0000FF"/>
</svg>
